<mxfile host="65bd71144e">
    <diagram id="SQz-jW7jYEupffBCN8sf" name="Страница 1">
        <mxGraphModel dx="705" dy="646" grid="1" gridSize="10" guides="1" tooltips="1" connect="1" arrows="1" fold="1" page="1" pageScale="1" pageWidth="827" pageHeight="1169" math="0" shadow="0">
            <root>
                <mxCell id="0"/>
                <mxCell id="1" parent="0"/>
                <mxCell id="4" value="Time" style="swimlane;fontStyle=1;childLayout=stackLayout;horizontal=1;startSize=30;horizontalStack=0;resizeParent=1;resizeParentMax=0;resizeLast=0;collapsible=1;marginBottom=0;swimlaneLine=1;" parent="1" vertex="1">
                    <mxGeometry x="210" y="250" width="380" height="300" as="geometry"/>
                </mxCell>
                <mxCell id="5" value="- min : int&#10;- sec : int" style="text;strokeColor=none;fillColor=none;align=left;verticalAlign=middle;spacingLeft=4;spacingRight=4;overflow=hidden;points=[[0,0.5],[1,0.5]];portConstraint=eastwest;rotatable=0;" parent="4" vertex="1">
                    <mxGeometry y="30" width="380" height="60" as="geometry"/>
                </mxCell>
                <mxCell id="6" value="+ Time()&#10;+ Time(m : int, s : int)&#10;+ Time(t : const Time&amp;)&#10;+ operator=(t : const Time&amp;) : Time&amp;&#10;+ operator+(tmp : Time) : Time&#10;+ operator&lt;&lt;(out : ostream&amp;, tmp : const Time&amp;) : friend ostream&amp;&#10;+ operator&gt;&gt;(in : istream&amp;, tmp : Time&amp;) : friend istream&amp;&#10;+ ~Time()" style="text;strokeColor=default;fillColor=none;align=left;verticalAlign=middle;spacingLeft=4;spacingRight=4;overflow=hidden;points=[[0,0.5],[1,0.5]];portConstraint=eastwest;rotatable=0;" parent="4" vertex="1">
                    <mxGeometry y="90" width="380" height="210" as="geometry"/>
                </mxCell>
                <mxCell id="26" value="Vector" style="swimlane;fontStyle=1;childLayout=stackLayout;horizontal=1;startSize=30;horizontalStack=0;resizeParent=1;resizeParentMax=0;resizeLast=0;collapsible=1;marginBottom=0;swimlaneLine=1;" parent="1" vertex="1">
                    <mxGeometry x="680" y="250" width="440" height="290" as="geometry"/>
                </mxCell>
                <mxCell id="27" value="- size : int&#10;- data : T*" style="text;strokeColor=none;fillColor=none;align=left;verticalAlign=middle;spacingLeft=4;spacingRight=4;overflow=hidden;points=[[0,0.5],[1,0.5]];portConstraint=eastwest;rotatable=0;" parent="26" vertex="1">
                    <mxGeometry y="30" width="440" height="100" as="geometry"/>
                </mxCell>
                <mxCell id="28" value="+ Vector(s : int, tmp : T)&#10;+ Vector(tmp : const Vector&lt;T&gt;&amp;)&#10;+ ~Vector()&#10;+ operator=(tmp : const Vector&lt;T&gt;&amp;) : Vector&amp;&#10;+ operator[](index : int) : T&amp;&#10;+ operator+(tmp : const Vector&lt;T&gt;) : Vector&#10;+ operator()() : int&#10;+ operator&lt;&lt; &lt;&gt;(out : ostream&amp;, tmp : const Vector&lt;T&gt;&amp;) : friend ostream&amp;&#10;+ operator&gt;&gt; &lt;&gt;(in : istream&amp;, tmp : Vector&lt;T&gt;&amp;) : friend istream" style="text;strokeColor=default;fillColor=none;align=left;verticalAlign=middle;spacingLeft=4;spacingRight=4;overflow=hidden;points=[[0,0.5],[1,0.5]];portConstraint=eastwest;rotatable=0;" parent="26" vertex="1">
                    <mxGeometry y="130" width="440" height="160" as="geometry"/>
                </mxCell>
            </root>
        </mxGraphModel>
    </diagram>
</mxfile>